name C:\Users\antoi\Documents\MyRepositories\upper-imu-dc\Results\main_tracking\Case_76\FLX01_angularVelocities_groundFrame.mot
datacolumns 4
datarows 58
range 5.01000000 5.58000000
endheader 
time	radius_imu_x	radius_imu_y	radius_imu_z	
          5.01000000	          0.88565634	         -0.48383920	         -1.18574151	
          5.02000000	          0.89411691	         -0.48664301	         -1.16326091	
          5.03000000	          0.90208645	         -0.48858710	         -1.14147454	
          5.04000000	          0.90932124	         -0.48968192	         -1.12055974	
          5.05000000	          0.91552308	         -0.48991440	         -1.10072269	
          5.06000000	          0.92031123	         -0.48923166	         -1.08220513	
          5.07000000	          0.92322067	         -0.48753453	         -1.06528162	
          5.08000000	          0.92373686	         -0.48468708	         -1.05024370	
          5.09000000	          0.92136245	         -0.48054230	         -1.03737283	
          5.10000000	          0.91569639	         -0.47497581	         -1.02690903	
          5.11000000	          0.90649888	         -0.46791537	         -1.01902390	
          5.12000000	          0.89372009	         -0.45935474	         -1.01380339	
          5.13000000	          0.87749062	         -0.44934808	         -1.01124459	
          5.14000000	          0.85808300	         -0.43799274	         -1.01126453	
          5.15000000	          0.83588373	         -0.42542981	         -1.01368839	
          5.16000000	          0.81133938	         -0.41180821	         -1.01830149	
          5.17000000	          0.78504571	         -0.39735325	         -1.02476623	
          5.18000000	          0.75761760	         -0.38231194	         -1.03274088	
          5.19000000	          0.72971256	         -0.36698097	         -1.04182915	
          5.20000000	          0.70207615	         -0.35174911	         -1.05153725	
          5.21000000	          0.67546037	         -0.33704914	         -1.06139229	
          5.22000000	          0.65060769	         -0.32334728	         -1.07092635	
          5.23000000	          0.62816778	         -0.31109462	         -1.07969259	
          5.24000000	          0.60864728	         -0.30074080	         -1.08728850	
          5.25000000	          0.59238286	         -0.29267751	         -1.09338164	
          5.26000000	          0.57954070	         -0.28723032	         -1.09774781	
          5.27000000	          0.57013281	         -0.28464924	         -1.10027258	
          5.28000000	          0.56402330	         -0.28514629	         -1.10091902	
          5.29000000	          0.56096687	         -0.28889207	         -1.09969787	
          5.30000000	          0.56069625	         -0.29600971	         -1.09671205	
          5.31000000	          0.56294100	         -0.30660258	         -1.09212009	
          5.32000000	          0.56741242	         -0.32074178	         -1.08607718	
          5.33000000	          0.57383281	         -0.33847236	         -1.07875225	
          5.34000000	          0.58193694	         -0.35979895	         -1.07032418	
          5.35000000	          0.59146146	         -0.38468285	         -1.06097457	
          5.36000000	          0.60213293	         -0.41303619	         -1.05088472	
          5.37000000	          0.61366479	         -0.44471786	         -1.04024046	
          5.38000000	          0.62574552	         -0.47953474	         -1.02922489	
          5.39000000	          0.63803449	         -0.51724130	         -1.01801584	
          5.40000000	          0.65017555	         -0.55752865	         -1.00680093	
          5.41000000	          0.66180156	         -0.60001952	         -0.99578138	
          5.42000000	          0.67253443	         -0.64426002	         -0.98516949	
          5.43000000	          0.68198804	         -0.68971399	         -0.97518967	
          5.44000000	          0.68977294	         -0.73575860	         -0.96607860	
          5.45000000	          0.69550355	         -0.78168747	         -0.95808379	
          5.46000000	          0.69880907	         -0.82672344	         -0.95146038	
          5.47000000	          0.69934707	         -0.87003877	         -0.94646565	
          5.48000000	          0.69681797	         -0.91077881	         -0.94335140	
          5.49000000	          0.69097854	         -0.94808474	         -0.94235478	
          5.50000000	          0.68165244	         -0.98111200	         -0.94368869	
          5.51000000	          0.66873703	         -1.00904476	         -0.94753223	
          5.52000000	          0.65220760	         -1.03110852	         -0.95402193	
          5.53000000	          0.63212124	         -1.04658481	         -0.96324362	
          5.54000000	          0.60862153	         -1.05483002	         -0.97522462	
          5.55000000	          0.58194445	         -1.05529987	         -0.98992628	
          5.56000000	          0.55242461	         -1.04757981	         -1.00723678	
          5.57000000	          0.52050055	         -1.03142053	         -1.02696432	
          5.58000000	          0.48671651	         -1.00677580	         -1.04883093	
